<?xml version="1.0" encoding="utf-8"?>
<!-- Generator: Adobe Illustrator 23.0.3, SVG Export Plug-In . SVG Version: 6.00 Build 0)  -->
<svg width="430" height="120" xmlns="http://www.w3.org/2000/svg">
	<!-- Created with Method Draw - http://github.com/duopixel/Method-Draw/ -->

	<g>
		<title>background</title>
		<rect fill="#ffffff" id="canvas_background" height="122" width="432" y="-1" x="-1"/>
		<g display="none" id="canvasGrid">
			<rect fill="url(#gridpattern)" stroke-width="0" y="0" x="0" height="100%" width="100%" id="svg_13"/>
		</g>
	</g>
	<g>
		<title>Layer 1</title>
		<rect stroke="#000" fill="#ffffff" stroke-width="3" stroke-opacity="null" x="3.49999" y="8.5125" width="414.99999" height="104" id="svg_14"/>
		<text fill="#000000" stroke="#000" stroke-width="0" stroke-opacity="null" x="177.49999" y="40.5125" id="svg_15" font-size="23" font-family="Helvetica, Arial, sans-serif" text-anchor="start" xml:space="preserve" font-weight="bold">算   法</text>
		<rect stroke="#000" fill="#00ffff" stroke-width="4" stroke-opacity="null" x="15.49999" y="53.5125" width="105" height="50" id="svg_16" rx="14"/>
		<text fill="#000000" stroke="#000" stroke-width="0" stroke-opacity="null" x="43.49999" y="84.41248" id="svg_17" font-size="21" font-family="Helvetica, Arial, sans-serif" text-anchor="start" xml:space="preserve" font-weight="bold">阶段1</text>
		<rect stroke="#000" fill="#00ffff" stroke-width="4" stroke-opacity="null" x="156.49999" y="53.5125" width="105" height="47" id="svg_21" rx="14"/>
		<rect stroke="#000" fill="#00ffff" stroke-width="4" stroke-opacity="null" x="300.49999" y="53.5125" width="105" height="50" id="svg_22" rx="14"/>
		<text fill="#000000" stroke="#000" stroke-width="0" stroke-opacity="null" x="182.49999" y="83.41248" id="svg_23" font-size="21" font-family="Helvetica, Arial, sans-serif" text-anchor="start" xml:space="preserve" font-weight="bold">阶段2</text>
		<text fill="#000000" stroke="#000" stroke-width="0" stroke-opacity="null" x="330.49999" y="84.41248" id="svg_24" font-size="21" font-family="Helvetica, Arial, sans-serif" text-anchor="start" xml:space="preserve" font-weight="bold">阶段3</text>
		<path fill="#ffffff" stroke="#000" stroke-width="3" stroke-opacity="null" d="m136.04089,82.27777c-0.83788,-0.42894 -0.72795,-0.68869 1.30919,-3.09317c1.02866,-1.21414 1.87028,-2.24281 1.87028,-2.28594c0,-0.04312 -2.84048,-0.0784 -6.3122,-0.0784l-6.3122,0l0,-2.27396l0,-2.27396l6.36223,0c4.90564,0 6.30746,-0.0685 6.12305,-0.29921c-0.13155,-0.16456 -1.02889,-1.25657 -1.9941,-2.42669c-1.81943,-2.20569 -1.81886,-2.79721 0.00281,-2.98055c0.90658,-0.09124 15.02088,6.91934 15.50601,7.70185c-4.70135,2.794 -10.32106,5.7186 -15.49772,8.29727c-0.27295,0 -0.74876,-0.12926 -1.05736,-0.28724l0,0l0.00001,0z" id="svg_25"/>
		<path fill="#ffffff" stroke="#000" stroke-width="3" stroke-opacity="null" d="m278.04089,84.27777c-0.83789,-0.42894 -0.72796,-0.68869 1.30919,-3.09317c1.02866,-1.21414 1.87028,-2.24281 1.87028,-2.28594c0,-0.04312 -2.84048,-0.0784 -6.3122,-0.0784l-6.31221,0l0,-2.27396l0,-2.27396l6.36223,0c4.90564,0 6.30747,-0.06851 6.12306,-0.29921c-0.13155,-0.16456 -1.02889,-1.25658 -1.9941,-2.42669c-1.81943,-2.20569 -1.81886,-2.79721 0.00281,-2.98056c0.90658,-0.09124 15.02088,6.91934 15.50601,7.70186c-4.70135,2.794 -10.32105,5.7186 -15.49772,8.29727c-0.27295,0 -0.74876,-0.12926 -1.05735,-0.28724l0,0z" id="svg_26"/>
	</g>
</svg>