<?xml version="1.0" encoding="utf-8"?>
<!-- Generator: Adobe Illustrator 23.0.3, SVG Export Plug-In . SVG Version: 6.00 Build 0)  -->
<svg width="430" height="120" xmlns="http://www.w3.org/2000/svg">
	<!-- Created with Method Draw - http://github.com/duopixel/Method-Draw/ -->

	<g>
		<title>background</title>
		<rect fill="#ffffff" id="canvas_background" height="122" width="432" y="-1" x="-1"/>
		<g display="none" id="canvasGrid">
			<rect fill="url(#gridpattern)" stroke-width="0" y="0" x="0" height="100%" width="100%" id="svg_13"/>
		</g>
	</g>
	<g>
		<title>Layer 1</title>
		<path stroke="#000" id="svg_1" d="m6.11248,26.80492l72.74997,0l24.25003,32.49993l-24.25003,32.50007l-72.74997,0l24.25003,-32.50007l-24.25003,-32.49993z" stroke-width="4.5" fill="#00ffff"/>
		<text font-weight="bold" stroke="#000" xml:space="preserve" text-anchor="start" font-family="Helvetica, Arial, sans-serif" font-size="18" id="svg_2" y="80.45646" x="42.17806" fill-opacity="null" stroke-opacity="null" stroke-width="0" fill="#000000">算法</text>
		<text font-weight="bold" stroke="#000" transform="matrix(0.819060205038781,0,0,0.8871346116065979,19.198148204391657,16.355995499183337) " xml:space="preserve" text-anchor="start" font-family="Helvetica, Arial, sans-serif" font-size="18" id="svg_3" y="41.39056" x="30.37441" fill-opacity="null" stroke-opacity="null" stroke-width="0" fill="#000000">启动</text>
		<rect stroke="#000" id="svg_4" height="94" width="315.00002" y="12.5125" x="107.49999" stroke-opacity="null" stroke-width="4.5" fill="#ffffff"/>
		<rect stroke="#000" rx="12" id="svg_5" height="49" width="71" y="36.51249" x="121.49999" stroke-opacity="null" stroke-width="4.5" fill="#ffffff"/>
		<rect stroke="#000" rx="12" id="svg_6" height="46" width="71" y="36.51249" x="227.49999" stroke-opacity="null" stroke-width="4.5" fill="#ffffff"/>
		<rect stroke="#000" rx="12" id="svg_7" height="45" width="72" y="35.51249" x="337.49999" stroke-opacity="null" stroke-width="4.5" fill="#ffffff"/>
		<path stroke="#000" id="svg_8" d="m207.98456,64.91288c-0.67675,-0.30815 -0.58796,-0.49475 1.05742,-2.22211c0.83084,-0.87223 1.51061,-1.61122 1.51061,-1.6422c0,-0.03098 -2.29423,-0.05632 -5.09831,-0.05632l-5.09831,0l0,-1.6336l0,-1.6336l5.13872,0c3.96224,0 5.09448,-0.04921 4.94554,-0.21495c-0.10625,-0.11822 -0.83103,-0.90271 -1.61061,-1.74331c-1.46954,-1.58455 -1.46907,-2.00949 0.00227,-2.14121c0.73223,-0.06555 12.13223,4.9708 12.52407,5.53295c-3.79724,2.00719 -8.33623,4.1082 -12.51738,5.96069c-0.22046,0 -0.60477,-0.09286 -0.85402,-0.20635l0,0l0,0.00001z" fill-opacity="null" stroke-opacity="null" stroke-width="1.5" fill="#ffffff"/>
		<path stroke="#000" id="svg_9" d="m315.98456,63.91288c-0.67675,-0.30815 -0.58796,-0.49475 1.05743,-2.22211c0.83083,-0.87223 1.51061,-1.61122 1.51061,-1.6422c0,-0.03097 -2.29424,-0.05632 -5.09831,-0.05632l-5.09832,0l0,-1.6336l0,-1.63359l5.13872,0c3.96224,0 5.09449,-0.04921 4.94554,-0.21495c-0.10625,-0.11822 -0.83103,-0.90271 -1.61062,-1.74331c-1.46953,-1.58456 -1.46907,-2.00949 0.00227,-2.14121c0.73224,-0.06555 12.13224,4.9708 12.52408,5.53295c-3.79724,2.00719 -8.33623,4.1082 -12.51738,5.96069c-0.22046,0 -0.60476,-0.09286 -0.85402,-0.20635l0,0z" fill-opacity="null" stroke-opacity="null" stroke-width="1.5" fill="#ffffff"/>
		<text style="cursor: move;" xml:space="preserve" text-anchor="start" font-family="Helvetica, Arial, sans-serif" font-size="15" id="svg_10" y="65.51249" x="139.49999" fill-opacity="null" stroke-opacity="null" stroke="#000" fill="#000000">阶段 1</text>
		<text style="cursor: move;" xml:space="preserve" text-anchor="start" font-family="Helvetica, Arial, sans-serif" font-size="15" id="svg_11" y="64.51249" x="245.49999" fill-opacity="null" stroke-opacity="null" stroke="#000" fill="#000000">阶段 2</text>
		<text style="cursor: move;" xml:space="preserve" text-anchor="start" font-family="Helvetica, Arial, sans-serif" font-size="15" id="svg_12" y="64.51249" x="353.49999" fill-opacity="null" stroke-opacity="null" stroke="#000" fill="#000000">阶段 3</text>
	</g>
</svg>